
<!-- Generator: visioncortex VTracer 0.6.4 -->
<svg version="1.1" xmlns="http://www.w3.org/2000/svg" viewBox="0 0 512 512" preserveAspectRatio="xMidYMid meet">
<path d="M0 0 C4.065 4.273 5.075 7.769 4.938 13.59 C1.14 36.168 -24.546 56.475 -41.562 69.562 C-42.686 70.472 -43.807 71.385 -44.926 72.301 C-54.518 80.131 -64.457 87.411 -74.562 94.562 C-75.812 95.45 -75.812 95.45 -77.086 96.354 C-78.803 97.572 -80.522 98.786 -82.242 99.998 C-83.947 101.202 -85.647 102.414 -87.34 103.635 C-91.09 106.305 -94.685 108.733 -98.902 110.602 C-102.864 112.425 -105.747 114.109 -108.562 117.562 C-110.295 124.341 -109.666 131.507 -109.531 138.441 C-109.846 169.832 -127.673 200.427 -148.562 222.562 C-149.235 223.3 -149.908 224.037 -150.602 224.797 C-173.282 248.751 -208.685 263.496 -241.562 264.562 C-243.488 264.64 -243.488 264.64 -245.453 264.719 C-273.727 265.492 -306.25 259.198 -328.555 240.68 C-331.34 239.13 -332.492 239.746 -335.562 240.562 C-338.051 241.507 -340.498 242.486 -342.949 243.52 C-344.443 244.138 -345.937 244.757 -347.43 245.375 C-348.215 245.701 -349 246.027 -349.808 246.363 C-449.68 287.748 -449.68 287.748 -484.562 277.562 C-488.906 275.66 -491.805 273.627 -494.562 269.75 C-496.723 262.863 -495.777 257.662 -492.941 251.191 C-487.829 241.445 -480.134 233.436 -472.562 225.562 C-472.072 225.05 -471.582 224.538 -471.076 224.01 C-465.174 217.876 -459.123 212.185 -452.445 206.887 C-449.826 204.775 -447.298 202.596 -444.774 200.375 C-436.548 193.164 -427.842 186.703 -418.975 180.306 C-416.636 178.616 -414.307 176.913 -411.98 175.207 C-401.701 167.692 -391.209 160.547 -380.562 153.562 C-380.671 152.433 -380.671 152.433 -380.781 151.281 C-384.095 113.36 -375.813 76.554 -351.562 46.562 C-348.651 43.141 -345.643 39.832 -342.562 36.562 C-341.963 35.899 -341.364 35.235 -340.746 34.551 C-317.564 9.867 -281.183 -3.578 -247.793 -4.641 C-217.173 -5.119 -188.218 2.88 -163.562 21.562 C-162.828 22.287 -162.093 23.012 -161.336 23.759 C-158.826 26.132 -156.639 27.982 -153.562 29.562 C-149.201 29.375 -145.766 27.631 -141.875 25.75 C-139.563 24.751 -137.249 23.756 -134.934 22.766 C-133.728 22.234 -132.523 21.702 -131.281 21.154 C-125.113 18.474 -118.776 16.237 -112.438 14 C-111.476 13.658 -111.476 13.658 -110.495 13.31 C-23.053 -17.658 -23.053 -17.658 0 0 Z M-135.562 49.562 C-134.897 50.772 -134.23 51.98 -133.562 53.188 C-133.107 54.011 -132.652 54.835 -132.184 55.684 C-131.031 57.73 -129.854 59.763 -128.66 61.785 C-123.928 69.815 -120.035 77.907 -116.562 86.562 C-112.222 86.562 -111.952 86.464 -109.023 83.703 C-108.365 83.088 -107.707 82.472 -107.028 81.838 C-106.338 81.17 -105.648 80.501 -104.938 79.812 C-104.227 79.132 -103.516 78.452 -102.784 77.751 C-89.995 65.88 -89.995 65.88 -82.562 50.562 C-82.696 47.157 -82.696 47.157 -84.562 44.562 C-98.952 35.657 -121.122 44.332 -135.562 49.562 Z M-398.562 198.562 C-403.53 203.662 -407.998 208.453 -409 215.75 C-408.827 218.585 -408.827 218.585 -407.035 220.211 C-403.59 222.094 -400.392 222.051 -396.562 222 C-395.779 221.995 -394.996 221.989 -394.189 221.984 C-381.419 221.664 -368.643 218.589 -356.562 214.562 C-356.903 213.966 -357.243 213.369 -357.594 212.754 C-360.869 206.891 -363.882 200.946 -366.75 194.875 C-367.083 194.175 -367.415 193.475 -367.758 192.754 C-369.937 188.099 -371.811 183.395 -373.562 178.562 C-380.934 178.562 -393.137 193.331 -398.562 198.562 Z " fill="#F5CB89" transform="translate(502.5625,127.4375)"/>
<path d="M0 0 C4.065 4.273 5.075 7.769 4.938 13.59 C1.14 36.168 -24.546 56.475 -41.562 69.562 C-42.686 70.472 -43.807 71.385 -44.926 72.301 C-54.518 80.131 -64.457 87.411 -74.562 94.562 C-75.812 95.45 -75.812 95.45 -77.086 96.354 C-78.803 97.572 -80.522 98.786 -82.242 99.998 C-83.947 101.202 -85.647 102.414 -87.34 103.635 C-91.09 106.305 -94.685 108.733 -98.902 110.602 C-102.864 112.425 -105.747 114.109 -108.562 117.562 C-110.295 124.341 -109.666 131.507 -109.531 138.441 C-109.846 169.832 -127.673 200.427 -148.562 222.562 C-149.235 223.3 -149.908 224.037 -150.602 224.797 C-173.282 248.751 -208.685 263.496 -241.562 264.562 C-243.488 264.64 -243.488 264.64 -245.453 264.719 C-273.727 265.492 -306.25 259.198 -328.555 240.68 C-331.34 239.13 -332.492 239.746 -335.562 240.562 C-338.051 241.507 -340.498 242.486 -342.949 243.52 C-344.443 244.138 -345.937 244.757 -347.43 245.375 C-348.215 245.701 -349 246.027 -349.808 246.363 C-449.68 287.748 -449.68 287.748 -484.562 277.562 C-488.906 275.66 -491.805 273.627 -494.562 269.75 C-496.723 262.863 -495.777 257.662 -492.941 251.191 C-487.829 241.445 -480.134 233.436 -472.562 225.562 C-472.072 225.05 -471.582 224.538 -471.076 224.01 C-465.174 217.876 -459.123 212.185 -452.445 206.887 C-449.826 204.775 -447.298 202.596 -444.774 200.375 C-436.548 193.164 -427.842 186.703 -418.975 180.306 C-416.636 178.616 -414.307 176.913 -411.98 175.207 C-401.701 167.692 -391.209 160.547 -380.562 153.562 C-379.903 153.893 -379.243 154.222 -378.562 154.562 C-377.924 157.094 -377.396 159.561 -376.938 162.125 C-376.803 162.836 -376.669 163.547 -376.531 164.279 C-376.201 166.039 -375.881 167.801 -375.562 169.562 C-376.422 170.157 -377.282 170.751 -378.168 171.363 C-386.709 177.328 -394.742 183.683 -402.562 190.562 C-403.471 191.359 -404.38 192.156 -405.316 192.977 C-407.758 195.146 -410.169 197.341 -412.562 199.562 C-413.626 200.545 -413.626 200.545 -414.711 201.547 C-420.726 207.308 -429.149 215.644 -429.758 224.359 C-429.735 225.334 -429.711 226.308 -429.688 227.312 C-429.669 228.297 -429.651 229.282 -429.633 230.297 C-429.61 231.045 -429.586 231.792 -429.562 232.562 C-388.793 248.344 -321.466 212.505 -284.279 196.115 C-258.38 184.563 -233.06 171.847 -208.562 157.562 C-207.397 156.887 -206.231 156.212 -205.065 155.538 C-165.255 132.499 -125.55 107.91 -90.625 77.812 C-90.022 77.294 -89.419 76.775 -88.798 76.24 C-73.288 62.764 -73.288 62.764 -65.254 44.5 C-65.057 41.253 -65.273 39.029 -67 36.25 C-78.233 28.852 -91.976 31.083 -104.52 33.441 C-117.123 36.071 -129.374 40.471 -141.562 44.562 C-145.522 40.273 -149.483 35.983 -153.562 31.562 C-150.476 28.476 -148.643 27.584 -144.648 26.031 C-142.82 25.318 -142.82 25.318 -140.954 24.591 C-139.616 24.08 -138.277 23.571 -136.938 23.062 C-136.255 22.801 -135.573 22.54 -134.87 22.271 C-25.507 -19.537 -25.507 -19.537 0 0 Z " fill="#94C6E8" transform="translate(502.5625,127.4375)"/>
<path d="M0 0 C2.056 2.985 2.675 4.954 2.41 8.586 C-1.254 25.848 -19.009 39.423 -32.062 49.812 C-33.209 50.749 -34.355 51.686 -35.5 52.625 C-60.265 72.844 -87.684 90.364 -115.062 106.812 C-115.927 107.333 -116.791 107.854 -117.682 108.391 C-139.711 121.631 -162.12 134.221 -185.062 145.812 C-186.182 146.38 -187.302 146.948 -188.456 147.534 C-312.912 210.273 -312.912 210.273 -357.188 200.062 C-360.473 198.634 -362.116 197.849 -364.062 194.812 C-365.274 189.661 -364.287 185.567 -361.75 181 C-357.574 174.652 -352.327 169.251 -347.062 163.812 C-346.369 163.079 -345.675 162.346 -344.961 161.59 C-334.509 150.773 -321.934 141.989 -310.062 132.812 C-310.558 129.347 -310.558 129.347 -311.062 125.812 C-309.871 125.568 -308.68 125.323 -307.453 125.07 C-282.913 119.765 -259.772 110.365 -237.062 99.812 C-236.036 99.336 -235.009 98.859 -233.951 98.367 C-209.664 87.018 -186.034 74.634 -163.062 60.812 C-161.686 59.985 -161.686 59.985 -160.281 59.14 C-142.885 48.634 -125.954 37.5 -110.062 24.812 C-109.145 24.088 -108.227 23.364 -107.281 22.617 C-102.022 18.4 -96.967 13.991 -92 9.438 C-91.159 8.669 -91.159 8.669 -90.301 7.885 C-87.872 5.632 -85.909 3.583 -84.062 0.812 C-81.683 0.989 -80.36 1.51 -78.684 3.215 C-77.441 4.719 -76.249 6.264 -75.062 7.812 C-74.237 7.484 -74.237 7.484 -73.395 7.148 C-19.024 -13.588 -19.024 -13.588 0 0 Z M-69.062 13.812 C-68.397 15.022 -67.73 16.23 -67.062 17.438 C-66.607 18.261 -66.152 19.085 -65.684 19.934 C-64.531 21.98 -63.354 24.013 -62.16 26.035 C-57.428 34.065 -53.535 42.157 -50.062 50.812 C-45.722 50.812 -45.452 50.714 -42.523 47.953 C-41.865 47.338 -41.207 46.722 -40.528 46.088 C-39.838 45.42 -39.148 44.751 -38.438 44.062 C-37.727 43.382 -37.016 42.702 -36.284 42.001 C-23.495 30.13 -23.495 30.13 -16.062 14.812 C-16.196 11.407 -16.196 11.407 -18.062 8.812 C-32.452 -0.093 -54.622 8.582 -69.062 13.812 Z M-332.062 162.812 C-337.03 167.912 -341.498 172.703 -342.5 180 C-342.327 182.835 -342.327 182.835 -340.535 184.461 C-337.09 186.344 -333.892 186.301 -330.062 186.25 C-329.279 186.245 -328.496 186.239 -327.689 186.234 C-314.919 185.914 -302.143 182.839 -290.062 178.812 C-290.403 178.216 -290.743 177.619 -291.094 177.004 C-294.369 171.141 -297.382 165.196 -300.25 159.125 C-300.583 158.425 -300.915 157.725 -301.258 157.004 C-303.437 152.349 -305.311 147.645 -307.062 142.812 C-314.434 142.812 -326.637 157.581 -332.062 162.812 Z " fill="#F7DAAE" transform="translate(436.0625,163.1875)"/>
<path d="M0 0 C1.325 39.022 -9.965 73.713 -36.773 102.641 C-37.508 103.419 -38.243 104.198 -39 105 C-39.673 105.737 -40.346 106.475 -41.039 107.234 C-63.719 131.188 -99.122 145.934 -132 147 C-133.284 147.052 -134.568 147.103 -135.891 147.156 C-165.304 147.96 -195.237 140.606 -219.48 123.508 C-219.982 123.01 -220.483 122.513 -221 122 C-221 121.01 -221 120.02 -221 119 C-220.226 118.656 -219.451 118.311 -218.653 117.956 C-200.828 110.003 -183.165 101.753 -165.625 93.188 C-164.736 92.755 -163.847 92.322 -162.931 91.875 C-150.497 85.811 -138.207 79.511 -126 73 C-124.815 72.37 -123.631 71.741 -122.446 71.112 C-107.164 62.973 -92.012 54.625 -77 46 C-76.05 45.454 -75.1 44.908 -74.121 44.346 C-53.847 32.667 -33.795 20.598 -14 8.125 C-13.235 7.643 -12.47 7.162 -11.682 6.666 C-8.918 4.911 -6.225 3.172 -3.625 1.18 C-2 0 -2 0 0 0 Z " fill="#EABF85" transform="translate(393,245)"/>
<path d="M0 0 C1 1 1 1 1.297 3.273 C0.909 6.839 -0.303 8.031 -2.75 10.625 C-3.976 11.928 -3.976 11.928 -5.227 13.258 C-8.111 16.11 -11.095 18.807 -14.125 21.5 C-21.727 28.304 -27.923 35.792 -30 46 C-30.052 47.562 -30.094 49.125 -30.125 50.688 C-30.385 53.407 -30.59 54.622 -32.628 56.501 C-33.344 56.948 -34.059 57.395 -34.797 57.855 C-35.615 58.367 -36.433 58.878 -37.276 59.405 C-42.163 62.267 -47.123 64.971 -52.125 67.625 C-53.27 68.235 -54.416 68.846 -55.595 69.475 C-57.945 70.726 -60.297 71.974 -62.649 73.22 C-65.657 74.818 -68.656 76.431 -71.652 78.051 C-105.292 96.091 -140.858 110.806 -177 123 C-178.748 123.598 -178.748 123.598 -180.532 124.208 C-181.679 124.584 -182.826 124.96 -184.008 125.348 C-185.038 125.689 -186.068 126.031 -187.129 126.383 C-190.216 127.046 -192.023 127.013 -195 126 C-196.992 123.402 -196.992 123.402 -198.875 119.938 C-199.212 119.317 -199.55 118.696 -199.897 118.057 C-213 93.469 -213 93.469 -213 81 C-211.799 81.16 -210.597 81.32 -209.359 81.484 C-202.996 82.186 -196.646 82.223 -190.25 82.25 C-189.064 82.271 -187.878 82.291 -186.656 82.312 C-160.472 82.427 -139.661 70.155 -121 53 C-92.816 27.203 -92.816 27.203 -76 21 C-72.062 21.312 -72.062 21.312 -69 22 C-69.424 26.521 -71.407 29.409 -73.941 33.035 C-75.316 35.215 -75.316 35.215 -75 39 C-65.829 39.153 -60.778 34.726 -54 29 C-53.474 28.558 -52.947 28.115 -52.405 27.66 C-50.239 25.835 -48.08 24.003 -45.925 22.167 C-15.784 -3.473 -15.784 -3.473 0 0 Z " fill="#E8D499" transform="translate(340,215)"/>
<path d="M0 0 C3.421 1.46 6.185 3.533 9.062 5.844 C9.618 6.274 10.174 6.705 10.746 7.148 C15.99 11.269 20.483 15.805 24.562 21.094 C23.903 21.094 23.243 21.094 22.562 21.094 C22.174 21.97 22.174 21.97 21.777 22.863 C18.024 29.755 10.634 34.841 4.609 39.652 C2.575 41.282 0.565 42.941 -1.422 44.629 C-19.652 59.971 -40.52 72.84 -61.108 84.745 C-63.469 86.112 -65.816 87.498 -68.164 88.887 C-106.128 111.152 -146.907 131.894 -189.449 143.544 C-191.396 144.082 -193.331 144.66 -195.266 145.238 C-198.47 146.102 -201.136 146.255 -204.438 146.094 C-208.557 134.149 -208.589 122.584 -208.438 110.094 C-207.778 110.056 -207.118 110.018 -206.438 109.978 C-199.304 109.462 -192.74 108.128 -185.875 106.156 C-184.8 105.85 -183.725 105.543 -182.617 105.228 C-122.085 87.445 -56.794 52.191 -11.141 7.926 C-10.603 7.41 -10.065 6.895 -9.511 6.364 C-8.488 5.375 -7.477 4.374 -6.481 3.357 C-4.331 1.278 -3.048 0.117 0 0 Z " fill="#E6D196" transform="translate(329.4375,142.90625)"/>
<path d="M0 0 C0.811 -0.021 1.623 -0.041 2.459 -0.062 C8.613 -0.102 13.575 0.756 18.375 4.938 C20.398 9.341 20.167 13.184 18.594 17.641 C13.583 28.406 5.141 36.913 -3.188 45.188 C-4.065 46.061 -4.942 46.935 -5.846 47.836 C-12.203 54.087 -18.752 59.752 -25.927 65.029 C-28.19 66.719 -30.388 68.486 -32.593 70.252 C-61.723 93.511 -93.829 113.423 -126.165 131.877 C-128.593 133.267 -131.014 134.67 -133.434 136.074 C-167.237 155.638 -202.136 173.803 -237.562 190.25 C-238.736 190.796 -239.91 191.342 -241.12 191.904 C-342.893 239.085 -342.893 239.085 -384.125 239.625 C-384.959 239.639 -385.793 239.653 -386.652 239.668 C-393.131 239.616 -398.037 238.516 -403 234.062 C-405.078 230.322 -405.377 227.367 -404.562 223.25 C-401.815 215.513 -396.86 209.402 -391.562 203.25 C-390.899 202.464 -390.235 201.677 -389.551 200.867 C-385.868 196.598 -382.044 192.75 -377.738 189.113 C-375.24 186.974 -372.846 184.739 -370.438 182.5 C-364.088 176.718 -357.384 171.461 -350.562 166.25 C-349.569 165.487 -349.569 165.487 -348.555 164.708 C-340.448 158.493 -332.324 152.522 -323.562 147.25 C-322.572 150.715 -322.572 150.715 -321.562 154.25 C-322.422 154.844 -323.282 155.439 -324.168 156.051 C-332.709 162.016 -340.742 168.371 -348.562 175.25 C-349.471 176.047 -350.38 176.843 -351.316 177.664 C-353.758 179.833 -356.169 182.029 -358.562 184.25 C-359.626 185.232 -359.626 185.232 -360.711 186.234 C-366.726 191.996 -375.149 200.332 -375.758 209.047 C-375.735 210.021 -375.711 210.996 -375.688 212 C-375.66 213.477 -375.66 213.477 -375.633 214.984 C-375.61 215.732 -375.586 216.48 -375.562 217.25 C-334.793 233.032 -267.466 197.193 -230.279 180.803 C-204.38 169.251 -179.06 156.535 -154.562 142.25 C-153.397 141.575 -152.231 140.9 -151.065 140.225 C-111.255 117.187 -71.55 92.598 -36.625 62.5 C-36.022 61.981 -35.419 61.462 -34.798 60.928 C-19.288 47.452 -19.288 47.452 -11.254 29.188 C-11.057 25.941 -11.273 23.716 -13 20.938 C-24.233 13.54 -37.976 15.77 -50.52 18.129 C-63.122 20.758 -75.378 25.149 -87.562 29.25 C-89.212 27.27 -90.863 25.29 -92.562 23.25 C-70.63 14.823 -48.558 8.114 -25.625 2.938 C-24.922 2.778 -24.22 2.619 -23.496 2.455 C-15.631 0.733 -8.023 0.051 0 0 Z " fill="#A6CDD5" transform="translate(448.5625,142.75)"/>
<path d="M0 0 C-0.444 6.957 -1.64 13.214 -3.875 19.812 C-4.177 20.708 -4.48 21.604 -4.792 22.527 C-11.776 42.294 -22.671 58.817 -37 74 C-37.673 74.737 -38.346 75.475 -39.039 76.234 C-61.719 100.188 -97.122 114.934 -130 116 C-131.926 116.077 -131.926 116.077 -133.891 116.156 C-153.375 116.689 -171.583 113.172 -190 107 C-190 106.67 -190 106.34 -190 106 C-189.152 105.83 -188.304 105.66 -187.43 105.484 C-162.233 100.279 -138.171 91.112 -115 80 C-114.131 79.587 -113.262 79.173 -112.367 78.748 C-79.51 63.031 -49.424 42.941 -22 19 C-20.677 17.846 -20.677 17.846 -19.328 16.668 C-14.001 11.945 -8.967 7.002 -4.031 1.871 C-2 0 -2 0 0 0 Z " fill="#F2AB7B" transform="translate(391,276)"/>
<path d="M0 0 C3.578 3.175 5.278 6.404 5.625 11.188 C4.992 21.225 -0.545 29.665 -7 37 C-7.715 37.824 -8.431 38.647 -9.168 39.496 C-17.17 48.544 -25.561 56.468 -35 64 C-36.136 64.926 -37.272 65.853 -38.406 66.781 C-64.876 88.349 -93.906 107.178 -123 125 C-124.536 125.943 -124.536 125.943 -126.103 126.906 C-157.543 146.186 -189.447 164.66 -222 182 C-223.046 182.558 -224.092 183.116 -225.17 183.691 C-277.703 211.606 -334.049 236.991 -392 251 C-392.728 251.178 -393.455 251.356 -394.205 251.539 C-403.29 253.677 -412.238 254.309 -421.562 254.438 C-422.574 254.46 -423.586 254.482 -424.628 254.505 C-431.729 254.483 -437.218 253.309 -442.655 248.552 C-445.673 245.07 -445.521 240.609 -445.457 236.223 C-443.753 224.208 -434.993 214.541 -427 206 C-426.234 205.176 -425.469 204.353 -424.68 203.504 C-420.042 198.709 -415.06 194.458 -409.852 190.297 C-407.988 188.796 -406.148 187.266 -404.336 185.703 C-392.27 175.303 -378.959 166.493 -365.625 157.812 C-364.942 157.367 -364.259 156.922 -363.556 156.463 C-359.806 154.053 -356.034 151.917 -352 150 C-352.378 152.475 -352.707 153.721 -354.544 155.473 C-355.533 156.153 -355.533 156.153 -356.543 156.848 C-357.28 157.365 -358.017 157.882 -358.777 158.415 C-359.573 158.959 -360.368 159.502 -361.188 160.062 C-362.84 161.223 -364.491 162.386 -366.141 163.551 C-367.375 164.42 -367.375 164.42 -368.635 165.307 C-374.252 169.327 -379.618 173.673 -385 178 C-386.429 179.137 -386.429 179.137 -387.887 180.297 C-396.705 187.392 -405.004 194.991 -413 203 C-413.706 203.648 -414.413 204.297 -415.141 204.965 C-422.698 212.033 -431.452 222.209 -432.312 232.875 C-432.261 235.993 -431.975 237.043 -430.375 239.875 C-423.614 245.924 -413.327 244.63 -404.845 244.216 C-328.362 238.401 -244.057 187.709 -178.473 150.109 C-173.934 147.513 -169.352 145.012 -164.746 142.538 C-152.216 135.804 -140.066 128.532 -128 121 C-127.077 120.425 -126.154 119.85 -125.203 119.257 C-99.762 103.363 -74.809 86.59 -51.718 67.409 C-50.241 66.198 -48.736 65.021 -47.227 63.852 C-23.073 45.131 -23.073 45.131 -9.699 18.902 C-9.681 15.839 -9.805 13.411 -11.125 10.625 C-15.854 6.526 -21.819 6.645 -27.75 6.688 C-29.005 6.696 -29.005 6.696 -30.284 6.705 C-39.06 6.871 -47.436 8.139 -56 10 C-56.866 10.188 -57.733 10.376 -58.625 10.57 C-75.308 14.293 -91.447 19.548 -107.655 24.912 C-112.081 26.352 -116.531 27.699 -121 29 C-122.5 27.625 -122.5 27.625 -124 26 C-124 25.34 -124 24.68 -124 24 C-100.18 14.676 -76.459 5.644 -51.562 -0.438 C-50.044 -0.809 -50.044 -0.809 -48.494 -1.187 C-34.847 -4.375 -12.229 -8.702 0 0 Z " fill="#6CA6B0" transform="translate(477,137)"/>
<path d="M0 0 C1.363 0 1.363 0 2.753 0 C21.819 0.16 21.819 0.16 27.875 3.188 C26.326 7.218 23.499 9.52 20.25 12.188 C19.675 12.665 19.1 13.142 18.508 13.633 C-3.404 31.642 -27.212 46.603 -52.696 58.998 C-55.418 60.331 -58.126 61.692 -60.836 63.051 C-78.613 71.877 -96.826 79.377 -115.278 86.661 C-119.29 88.246 -123.279 89.888 -127.258 91.556 C-129.125 92.188 -129.125 92.188 -132.125 92.188 C-123.763 72.895 -114.683 56.641 -100.125 41.188 C-99.526 40.524 -98.926 39.86 -98.309 39.176 C-73.744 13.02 -35.26 -0.03 0 0 Z " fill="#E3DCA5" transform="translate(260.125,122.8125)"/>
<path d="M0 0 C2.056 2.985 2.675 4.954 2.41 8.586 C-1.254 25.848 -19.009 39.423 -32.062 49.812 C-33.209 50.749 -34.355 51.686 -35.5 52.625 C-60.265 72.844 -87.684 90.364 -115.062 106.812 C-115.927 107.333 -116.791 107.854 -117.682 108.391 C-139.711 121.631 -162.12 134.221 -185.062 145.812 C-186.182 146.38 -187.302 146.948 -188.456 147.534 C-312.912 210.273 -312.912 210.273 -357.188 200.062 C-360.473 198.634 -362.116 197.849 -364.062 194.812 C-365.274 189.661 -364.287 185.567 -361.75 181 C-357.574 174.652 -352.327 169.251 -347.062 163.812 C-346.369 163.079 -345.675 162.346 -344.961 161.59 C-339.728 156.174 -333.981 151.454 -328.062 146.812 C-327.362 146.262 -326.662 145.712 -325.94 145.146 C-323.633 143.339 -321.318 141.543 -319 139.75 C-317.874 138.873 -317.874 138.873 -316.725 137.978 C-315.668 137.167 -315.668 137.167 -314.59 136.34 C-313.958 135.852 -313.326 135.365 -312.676 134.863 C-311.062 133.812 -311.062 133.812 -309.062 133.812 C-308.403 136.783 -307.743 139.752 -307.062 142.812 C-307.778 143.323 -308.493 143.833 -309.23 144.359 C-328.039 158.016 -328.039 158.016 -341.062 176.812 C-341.48 179.897 -341.48 179.897 -341.062 182.812 C-337.349 185.288 -334.432 185.197 -330.125 185.188 C-329.332 185.186 -328.54 185.184 -327.723 185.183 C-319.051 185.01 -310.817 183.308 -302.396 181.346 C-300.332 180.874 -298.256 180.455 -296.18 180.043 C-261.294 172.772 -227.297 157.576 -195.276 142.339 C-191.943 140.756 -188.601 139.192 -185.258 137.629 C-171.358 131.084 -157.919 123.995 -144.632 116.287 C-141.542 114.514 -138.417 112.811 -135.285 111.113 C-107.131 95.799 -80.276 77.581 -55.062 57.812 C-54.218 57.16 -53.374 56.508 -52.504 55.836 C-49.85 53.637 -47.489 51.26 -45.062 48.812 C-43.917 47.752 -42.766 46.697 -41.609 45.648 C-26.263 32.386 -26.263 32.386 -17.062 14.812 C-17.167 11.395 -17.167 11.395 -18.062 8.812 C-32.284 3.351 -48.488 7.771 -62.312 12.562 C-67.972 14.449 -67.972 14.449 -71.062 13.812 C-73.039 11.768 -74.062 10.695 -74.062 7.812 C-54.355 -0.424 -19.534 -13.953 0 0 Z " fill="#DCEBF4" transform="translate(436.0625,163.1875)"/>
<path d="M0 0 C0.213 15.709 0.213 15.709 -1 20 C-1.695 20.407 -2.39 20.815 -3.105 21.234 C-7.056 23.644 -9.93 26.807 -13.125 30.125 C-19.107 36.216 -25.266 41.742 -32 47 C-33.14 47.927 -34.278 48.857 -35.414 49.789 C-73.747 81.12 -140.362 127.74 -192.199 126.637 C-198.642 125.172 -204.377 121.359 -210 118 C-210 117.34 -210 116.68 -210 116 C-209.109 115.827 -208.219 115.655 -207.301 115.477 C-138.882 101.249 -70.618 59.775 -18 15 C-17.127 14.26 -17.127 14.26 -16.237 13.506 C-9.111 7.633 -9.111 7.633 -2.377 1.337 C-1 0 -1 0 0 0 Z " fill="#F7D7A9" transform="translate(393,256)"/>
<path d="M0 0 C4.827 1.413 8.716 3.43 13 6 C-17.32 36.598 -54.273 59.639 -92 80 C-92.864 80.469 -93.729 80.938 -94.619 81.421 C-124.22 97.419 -159.677 116.312 -194 118 C-195.312 115.377 -194.896 113.77 -194.562 110.875 C-194.461 109.965 -194.359 109.055 -194.254 108.117 C-194.17 107.419 -194.086 106.72 -194 106 C-192.729 105.894 -191.458 105.789 -190.148 105.68 C-184.774 105.074 -179.783 103.718 -174.625 102.125 C-173.637 101.821 -172.65 101.517 -171.633 101.204 C-151.711 94.88 -132.616 86.152 -113.724 77.276 C-111.173 76.081 -108.615 74.903 -106.055 73.73 C-76.915 60.297 -48.614 43.701 -24 23 C-23.178 22.311 -23.178 22.311 -22.34 21.609 C-10.155 11.784 -10.155 11.784 0 0 Z " fill="#F5CB89" transform="translate(316,136)"/>
<path d="M0 0 C2.161 2.186 2.934 3.527 3.363 6.586 C3.338 7.967 3.338 7.967 3.312 9.375 C3.309 10.29 3.305 11.205 3.301 12.148 C2.948 15.491 2.4 17.925 1 21 C-1.228 22.525 -3.076 23.56 -5.508 24.629 C-6.505 25.096 -6.505 25.096 -7.522 25.572 C-9.713 26.591 -11.918 27.578 -14.125 28.562 C-15.667 29.267 -17.208 29.972 -18.749 30.678 C-42.988 41.709 -67.753 51.522 -93 60 C-94.158 60.396 -95.317 60.791 -96.51 61.199 C-97.658 61.575 -98.806 61.952 -99.988 62.34 C-101.538 62.854 -101.538 62.854 -103.118 63.379 C-106.222 64.048 -108.013 64.049 -111 63 C-112.664 60.693 -113.955 58.621 -115.25 56.125 C-115.776 55.168 -115.776 55.168 -116.312 54.191 C-117.775 51.497 -119.029 48.913 -120 46 C-118.826 46.035 -117.651 46.07 -116.441 46.105 C-86.489 46.726 -59.261 37.057 -36 18 C-33.462 15.932 -30.921 13.87 -28.375 11.812 C-27.739 11.299 -27.104 10.785 -26.449 10.255 C-10.514 -2.485 -10.514 -2.485 0 0 Z " fill="#F6DBAF" transform="translate(256,278)"/>
<path d="M0 0 C0.847 0.018 1.694 0.036 2.566 0.055 C3.184 0.078 3.801 0.101 4.438 0.125 C-1.361 8.243 -7.951 15.667 -14.562 23.125 C-15.114 23.748 -15.665 24.37 -16.233 25.012 C-17.813 26.787 -19.404 28.552 -21 30.312 C-21.471 30.841 -21.943 31.369 -22.428 31.913 C-29.946 40.11 -37.835 42.255 -48.438 43.688 C-49.854 43.881 -49.854 43.881 -51.299 44.079 C-62.347 45.493 -73.437 45.86 -84.562 46.125 C-75.656 27.201 -48.33 13.739 -29.867 6.949 C-9.122 -0.257 -9.122 -0.257 0 0 Z " fill="#C6DCCA" transform="translate(239.5625,124.875)"/>
<path d="M0 0 C1.98 0.33 3.96 0.66 6 1 C2.677 11.439 -9.765 19.45 -18 26 C-18.849 26.717 -19.699 27.433 -20.574 28.172 C-46.792 50.275 -78.011 66.712 -109 81 C-110.158 81.534 -111.316 82.069 -112.509 82.62 C-131.25 91.244 -150.057 99.396 -169.812 105.438 C-171.022 105.809 -171.022 105.809 -172.256 106.187 C-177.173 107.633 -181.899 108.494 -187 109 C-186.67 106.69 -186.34 104.38 -186 102 C-185.353 101.83 -184.705 101.66 -184.038 101.484 C-141.474 90.195 -100.897 71.316 -63 49 C-62.261 48.568 -61.521 48.136 -60.759 47.691 C-39.427 35.22 -14.78 20.379 0 0 Z " fill="#E3DCA4" transform="translate(310,134)"/>
</svg>